<?xml version="1.0" encoding="utf-8"?>
<!-- Generator: Adobe Illustrator 18.0.0, SVG Export Plug-In . SVG Version: 6.00 Build 0)  -->
<!DOCTYPE svg PUBLIC "-//W3C//DTD SVG 1.1//EN" "http://www.w3.org/Graphics/SVG/1.1/DTD/svg11.dtd">
<svg version="1.1" id="Layer_1" xmlns="http://www.w3.org/2000/svg" xmlns:xlink="http://www.w3.org/1999/xlink" x="0px" y="0px"
	 viewBox="0 0 70 70" enable-background="new 0 0 70 70" xml:space="preserve">
<g id="XMLID_1_">
	<g>
	</g>
	<g>
		<path fill="none" stroke="#BAAFA6" d="M35.5,40.7c1.4,0,2.5,1.1,2.5,2.5c0,0.3,0,0.5-0.1,0.7c-0.3,1-1.3,1.8-2.4,1.8
			c-0.8,0-1.5-0.4-2-1c-0.3-0.4-0.5-0.9-0.5-1.5c0-0.8,0.4-1.5,1-2C34.3,40.9,34.9,40.7,35.5,40.7z"/>
		<path fill="none" stroke="#BAAFA6" d="M52.4,7.8c-0.1-0.3-0.2-0.6-0.2-1c0-1.4,1.1-2.5,2.5-2.5c1.4,0,2.5,1.1,2.5,2.5
			c0,0.4-0.1,0.7-0.2,1c-0.4,0.9-1.2,1.5-2.3,1.5c-0.2,0-0.4,0-0.6-0.1c-0.2-0.1-0.4-0.1-0.6-0.2c-0.3-0.2-0.6-0.4-0.8-0.7
			C52.6,8.2,52.5,8,52.4,7.8z"/>
		<path fill="none" stroke="#BAAFA6" d="M47.4,47.6c0.2,0.3,0.2,0.7,0.2,1.1c0,1.4-1.1,2.5-2.5,2.5c-0.9,0-1.8-0.5-2.2-1.3
			c-0.2-0.3-0.3-0.7-0.3-1.2c0-0.4,0.1-0.8,0.3-1.2c0.4-0.8,1.2-1.3,2.2-1.3C46.2,46.1,47,46.7,47.4,47.6z"/>
		<path fill="none" stroke="#BAAFA6" d="M65.4,25.4c0.3-0.2,0.7-0.2,1-0.2c1.4,0,2.5,1.1,2.5,2.5c0,1.4-1.1,2.5-2.5,2.5
			c-0.4,0-0.7-0.1-1-0.2c-0.9-0.4-1.5-1.2-1.5-2.3C63.9,26.6,64.5,25.8,65.4,25.4z"/>
		<path fill="none" stroke="#BAAFA6" d="M5.3,41.6c0.4,0.4,0.6,1,0.6,1.6c0,1-0.6,1.9-1.5,2.3c-0.3,0.1-0.7,0.2-1,0.2
			c-1.4,0-2.5-1.1-2.5-2.5c0-1.4,1.1-2.5,2.5-2.5C4.2,40.7,4.9,41,5.3,41.6z"/>
		<path fill="none" stroke="#BAAFA6" d="M15.6,63.4c0,1.4-1.1,2.5-2.5,2.5c-1.4,0-2.5-1.1-2.5-2.5c0-1.4,1.1-2.5,2.5-2.5
			c0.2,0,0.4,0,0.6,0.1c0.6,0.2,1.1,0.5,1.5,1C15.5,62.4,15.6,62.9,15.6,63.4z"/>
		<path fill="none" stroke="#BAAFA6" d="M15.3,18.4c0.2,0.4,0.3,0.8,0.3,1.2c0,0.4-0.1,0.7-0.2,1c-0.2,0.4-0.5,0.8-0.9,1.1
			c-0.4,0.3-0.9,0.4-1.4,0.4c-0.3,0-0.5,0-0.8-0.1c-1-0.3-1.7-1.3-1.7-2.4c0-1.4,1.1-2.5,2.5-2.5C14.1,17.1,14.9,17.6,15.3,18.4z"/>
		<line fill="none" stroke="#BAAFA6" stroke-width="0.5" x1="4.5" y1="40.7" x2="12.3" y2="22.1"/>
		<line fill="none" stroke="#BAAFA6" x1="15.6" y1="18.4" x2="52.2" y2="7.8"/>
		<line fill="none" stroke="#BAAFA6" stroke-width="0.75" x1="57" y1="7.8" x2="65.2" y2="25.1"/>
		<polyline fill="none" stroke="#BAAFA6" stroke-width="0.65" points="63.9,27.6 50.6,25.7 45,24.9 31.8,23 15.6,20.6 		"/>
		<polyline fill="none" stroke="#BAAFA6" points="14.5,21.6 22.4,29.6 33.9,41.2 		"/>
		<line fill="none" stroke="#BAAFA6" stroke-width="0.5" x1="15.2" y1="62" x2="33.5" y2="44.7"/>
		<line fill="none" stroke="#BAAFA6" stroke-width="0.5" x1="4.5" y1="45.5" x2="13.1" y2="60.9"/>
		<line fill="none" stroke="#BAAFA6" stroke-width="0.75" x1="43" y1="47.5" x2="38" y2="44"/>
		<line fill="none" stroke="#BAAFA6" stroke-width="0.5" x1="65.2" y1="30.1" x2="47.7" y2="47.5"/>
		<line fill="none" stroke="#BAAFA6" x1="43" y1="49.8" x2="15.6" y2="63.4"/>
		<polyline fill="none" stroke="#BAAFA6" points="13.8,60.9 13.4,35.9 13.1,22.1 		"/>
		<polyline fill="none" stroke="#BAAFA6" stroke-width="0.75" points="5.3,41.6 13.4,35.9 22.4,29.6 31.8,23 52.7,8.3 		"/>
		<polyline fill="none" stroke="#BAAFA6" points="46.2,46.1 50.6,25.7 54.1,9.2 		"/>
		<polyline fill="none" stroke="#BAAFA6" stroke-width="0.5" points="36.5,40.7 45,24.9 53.5,9 		"/>
	</g>
</g>
</svg>
