<?xml version="1.0" encoding="utf-8"?>
<!-- Generator: Adobe Illustrator 18.0.0, SVG Export Plug-In . SVG Version: 6.00 Build 0)  -->
<!DOCTYPE svg PUBLIC "-//W3C//DTD SVG 1.1//EN" "http://www.w3.org/Graphics/SVG/1.1/DTD/svg11.dtd">
<svg version="1.1" id="Layer_1" xmlns="http://www.w3.org/2000/svg" xmlns:xlink="http://www.w3.org/1999/xlink" x="0px" y="0px"
	 viewBox="0 0 68.8 68.8" enable-background="new 0 0 68.8 68.8" xml:space="preserve">
<g id="XMLID_4_">
	<g>
		<polygon fill="#C0C948" points="53.1,10.3 61.8,31.7 53.9,30.4 53.1,10.3 		"/>
		<polygon fill="#A7B63C" points="61.8,31.7 54.2,38.8 53.9,30.4 		"/>
		<polygon fill="#A7B63C" points="54.2,38.8 54.9,55.7 48,44.7 		"/>
		<polygon fill="#6D963E" points="48,44.7 54.9,55.7 44.1,48.3 		"/>
		<polygon fill="#C0C948" points="53.9,30.4 54.2,38.8 48,44.7 37.5,27.9 		"/>
		<polygon fill="#A7B63C" points="53.1,10.3 53.9,30.4 37.5,27.9 52.7,10.7 		"/>
		<polygon fill="#C0C948" points="52.7,10.7 37.5,27.9 32.3,27.1 		"/>
		<polygon fill="#8DA93D" points="48,44.7 44.1,48.3 28.7,37.8 37.5,27.9 		"/>
		<polygon fill="#6D963E" points="44.1,48.3 33.1,58.6 27.9,38.7 28.7,37.8 		"/>
		<polygon fill="#A7B63C" points="37.5,27.9 28.7,37.8 23.4,34.3 32.3,27.1 		"/>
		<polygon fill="#A7B63C" points="27.9,38.7 33.1,58.6 20,40.8 		"/>
		<polygon fill="#8DA93D" points="32.3,27.1 23.4,34.3 7,23.1 		"/>
		<polygon fill="#C0C948" points="27.9,38.7 20,40.8 18.3,38.4 23.4,34.3 28.7,37.8 		"/>
		<polygon fill="#6D963E" points="7,23.1 23.4,34.3 18.3,38.4 		"/>
		<polygon fill="#A7B63C" points="7,23.1 18.3,38.4 13,42.6 		"/>
		<polygon fill="#8DA93D" points="33.1,58.6 13,42.6 18.3,38.4 20,40.8 		"/>
	</g>
	<g>
	</g>
</g>
</svg>
